<svg id="Layer_1" data-name="Layer 1" xmlns="http://www.w3.org/2000/svg" viewBox="0 0 93 40.49"><defs><style>.cls-1{fill:none;stroke:#faa41a;stroke-miterlimit:10;stroke-width:4px;}</style></defs><title>deck</title><path d="M422.38,322.93h5.82c6.93,0,7.8,4.28,7.8,9.37V345c0,4.92-.76,10-8,10h-5.61ZM425.8,352h1.93c3.88,0,4.79-2.19,4.79-6.39V331.89c0-3.7-.66-6-4.76-6h-2Z" transform="translate(-410.29 -321.51)"/><path d="M442.81,343.48v4c0,2.43.49,5,2.9,5s2.74-1.89,2.74-4.22V348h3.35v.18c0,2.83-.66,7.19-6.08,7.19-5.1,0-6.25-3.35-6.25-8.31V338c0-3.71,1.29-7.8,6.31-7.8,4.71,0,6.09,3.5,6.09,7.8v5.51Zm5.75-2.79v-3.05c0-2.28-.36-4.52-2.81-4.52s-2.92,1.9-2.92,4.54v3Z" transform="translate(-410.29 -321.51)"/><path d="M466.93,347.28v.33c0,4.22-1.07,7.77-6.08,7.77-4.76,0-5.93-3.3-5.93-8.25v-9.49c0-4.14,1.51-7.47,6.15-7.47,5,0,5.86,3.67,5.86,6.93v1h-3.39v-.84c0-2.22-.37-4.13-2.54-4.13-1.9,0-2.64,1.42-2.64,4.31v10.48c0,2.22.42,4.53,2.59,4.53,1.93,0,2.59-1.3,2.59-4.39v-.77Z" transform="translate(-410.29 -321.51)"/><path d="M473.51,342h.07c1.18-2.71,3.91-8.35,5.35-11.43h3.6l-4.62,8.95L483.09,355h-3.74l-3.77-12.17-2.07,3.94V355h-3.4V321.51h3.4Z" transform="translate(-410.29 -321.51)"/><path d="M486.16,338.3v-6.62h3.19v6.62Zm0,16.7v-6.62h3.19V355Z" transform="translate(-410.29 -321.51)"/><line class="cls-1" y1="38.49" x2="93" y2="38.49"/></svg>