<svg id="Layer_1" data-name="Layer 1" xmlns="http://www.w3.org/2000/svg" xmlns:xlink="http://www.w3.org/1999/xlink" viewBox="0 0 158.42 143.98"><defs><style>.cls-1,.cls-4,.cls-7{fill:none;}.cls-2,.cls-3{fill:#c1272d;}.cls-2{stroke:#7953a2;}.cls-11,.cls-12,.cls-13,.cls-14,.cls-2,.cls-3,.cls-4,.cls-7{stroke-miterlimit:10;stroke-width:0.5px;}.cls-3{stroke:#d01d55;}.cls-4{stroke:#0fa24a;}.cls-5{fill:#faa41a;}.cls-14,.cls-6{fill:#fff;}.cls-11,.cls-12,.cls-13,.cls-14,.cls-7{stroke:#000;}.cls-8{fill:url(#New_Pattern_3);}.cls-9{fill:url(#New_Pattern_4);}.cls-10{fill:url(#New_Pattern_2);}.cls-11{fill:#d01d55;}.cls-12{fill:#0fa24a;}.cls-13{fill:#7953a2;}</style><pattern id="New_Pattern_3" data-name="New Pattern 3" x="-315.35" y="-279.03" width="7" height="7" patternUnits="userSpaceOnUse" viewBox="0 0 7 7"><rect class="cls-1" width="7" height="7"/><line class="cls-3" x1="6.88" y1="14.13" x2="14.13" y2="6.88"/><line class="cls-3" x1="-0.12" y1="14.13" x2="7.13" y2="6.88"/><line class="cls-3" x1="-7.12" y1="14.13" x2="0.13" y2="6.88"/><line class="cls-3" x1="6.88" y1="7.13" x2="14.13" y2="-0.12"/><line class="cls-3" x1="-0.12" y1="7.13" x2="7.13" y2="-0.12"/><line class="cls-3" x1="-7.12" y1="7.13" x2="0.13" y2="-0.12"/><line class="cls-3" x1="6.88" y1="0.13" x2="14.13" y2="-7.12"/><line class="cls-3" x1="-0.12" y1="0.13" x2="7.13" y2="-7.12"/><line class="cls-3" x1="-7.12" y1="0.13" x2="0.13" y2="-7.12"/></pattern><pattern id="New_Pattern_4" data-name="New Pattern 4" x="-315.35" y="-279.03" width="7" height="7" patternUnits="userSpaceOnUse" viewBox="0 0 7 7"><rect class="cls-1" width="7" height="7"/><line class="cls-4" x1="6.88" y1="14.13" x2="14.13" y2="6.88"/><line class="cls-4" x1="-0.12" y1="14.13" x2="7.13" y2="6.88"/><line class="cls-4" x1="-7.12" y1="14.13" x2="0.13" y2="6.88"/><line class="cls-4" x1="6.88" y1="7.13" x2="14.13" y2="-0.12"/><line class="cls-4" x1="-0.12" y1="7.13" x2="7.13" y2="-0.12"/><line class="cls-4" x1="-7.12" y1="7.13" x2="0.13" y2="-0.12"/><line class="cls-4" x1="6.88" y1="0.13" x2="14.13" y2="-7.12"/><line class="cls-4" x1="-0.12" y1="0.13" x2="7.13" y2="-7.12"/><line class="cls-4" x1="-7.12" y1="0.13" x2="0.13" y2="-7.12"/></pattern><pattern id="New_Pattern_2" data-name="New Pattern 2" x="-315.35" y="-279.03" width="7" height="7" patternUnits="userSpaceOnUse" viewBox="0 0 7 7"><rect class="cls-1" width="7" height="7"/><line class="cls-2" x1="6.88" y1="14.13" x2="14.13" y2="6.88"/><line class="cls-2" x1="-0.12" y1="14.13" x2="7.13" y2="6.88"/><line class="cls-2" x1="-7.12" y1="14.13" x2="0.13" y2="6.88"/><line class="cls-2" x1="6.88" y1="7.13" x2="14.13" y2="-0.12"/><line class="cls-2" x1="-0.12" y1="7.13" x2="7.13" y2="-0.12"/><line class="cls-2" x1="-7.12" y1="7.13" x2="0.13" y2="-0.12"/><line class="cls-2" x1="6.88" y1="0.13" x2="14.13" y2="-7.12"/><line class="cls-2" x1="-0.12" y1="0.13" x2="7.13" y2="-7.12"/><line class="cls-2" x1="-7.12" y1="0.13" x2="0.13" y2="-7.12"/></pattern></defs><title>logo</title><path class="cls-5" d="M473.77,385.59a93.86,93.86,0,0,1-30.9,26.55,92.69,92.69,0,0,1-38.68,10.75,91.33,91.33,0,0,1-39.06-6.58,88.83,88.83,0,0,1-17.31-9.41,80.43,80.43,0,0,1-7.93-6.23,71.33,71.33,0,0,1-7.11-7.33,72.38,72.38,0,0,1-7.48-84.08c.83-1.41,1.71-2.78,2.62-4.12s1.85-2.65,3-4l1.62-1.95a21.7,21.7,0,0,1,1.69-1.89q1.8-1.8,3.62-3.55c1.31-1.08,2.63-2.13,3.95-3.18a23.22,23.22,0,0,1,2.07-1.45l2.12-1.37a58.34,58.34,0,0,1,38.18-8.25,57.63,57.63,0,0,1,18.61,5.83l2.15,1.16a19,19,0,0,1,2.08,1.24c1.35.9,2.69,1.79,4,2.72s2.61,2.11,3.85,3.23,2.39,2.36,3.48,3.63a46.51,46.51,0,0,1,10.83,36.81,45.06,45.06,0,0,1-6.79,18,35.66,35.66,0,0,1-2.84,3.92c-.54.63-1,1.29-1.62,1.88l-1.77,1.75a20.81,20.81,0,0,1-1.88,1.62c-.65.51-1.27,1.05-1.95,1.51a37.26,37.26,0,0,1-4.22,2.55,36.73,36.73,0,0,1-18.81,4.12,35.73,35.73,0,0,1-17.94-6c-.65-.46-1.32-.85-1.95-1.37l-1.88-1.57a31.15,31.15,0,0,1-3.29-3.6,28.59,28.59,0,0,1-4.47-27.18,28.71,28.71,0,0,1,4.59-8.14,22.74,22.74,0,0,1,16.42-8.36,22,22,0,0,1,9.1,1.47,20.91,20.91,0,0,1,7.64,5.05,17.66,17.66,0,0,1,4.31,8.09,17.05,17.05,0,0,1-5.07,16.47,13.72,13.72,0,0,1-8.14,3.28,13.25,13.25,0,0,1-8.25-2.3,10.55,10.55,0,0,1-4.57-7,10.2,10.2,0,0,1,1.92-7.9l.41.29a9.33,9.33,0,0,0-1.2,7.38,9.06,9.06,0,0,0,4.4,5.73,11.2,11.2,0,0,0,7.07,1.38,11,11,0,0,0,6.26-3.12,12.89,12.89,0,0,0,3.22-6.18,13.36,13.36,0,0,0-.31-6.88,13,13,0,0,0-3.62-5.64,16,16,0,0,0-18.83-1.55,15.47,15.47,0,0,0-4.66,4.45,21,21,0,0,0-2.77,6,20,20,0,0,0,1,12.8,19.61,19.61,0,0,0,3.47,5.29,22.06,22.06,0,0,0,2.3,2.13l1.29.89c.42.31.95.54,1.41.82a24,24,0,0,0,12.42,3.06,23.77,23.77,0,0,0,11.92-3.67,22.49,22.49,0,0,0,2.5-1.82c.41-.31.75-.7,1.13-1a10.09,10.09,0,0,0,1.07-1.1l1-1.16c.33-.39.59-.84.89-1.25a24.29,24.29,0,0,0,1.63-2.71,29.56,29.56,0,0,0,3.47-12.15,29.13,29.13,0,0,0-8.57-22.33c-.71-.7-1.52-1.3-2.25-2s-1.65-1.13-2.45-1.72l-2.79-1.55a8.1,8.1,0,0,0-1.42-.69l-1.45-.63a37.07,37.07,0,0,0-12.13-2.71,35.68,35.68,0,0,0-22.86,7l-1.18.92a10.25,10.25,0,0,0-1.14,1c-.71.69-1.42,1.37-2.14,2s-1.27,1.51-1.92,2.25a9.64,9.64,0,0,0-.88,1.19l-.83,1.21a25.79,25.79,0,0,0-1.65,2.6c-.51.92-1,1.84-1.45,2.78a47.69,47.69,0,0,0-2.31,5.78,44.79,44.79,0,0,0-.86,24.17,42.88,42.88,0,0,0,11.5,20.45,39.9,39.9,0,0,0,4.41,3.81,46.41,46.41,0,0,0,5,3.26,55.18,55.18,0,0,0,35.32,6.92,54.43,54.43,0,0,0,22.09-8.23,53.07,53.07,0,0,0,16.06-16.42Z" transform="translate(-315.35 -279.03)"/><rect class="cls-6" x="52.15" y="42.47" width="33" height="49" rx="5.13" ry="5.13"/><rect class="cls-7" x="52.15" y="42.47" width="33" height="49" rx="5.13" ry="5.13"/><rect class="cls-8" x="52.15" y="42.47" width="33" height="49" rx="5.13" ry="5.13"/><rect class="cls-6" x="90.15" y="42.47" width="33" height="49" rx="5.13" ry="5.13"/><rect class="cls-7" x="90.15" y="42.47" width="33" height="49" rx="5.13" ry="5.13"/><rect class="cls-9" x="90.15" y="42.47" width="33" height="49" rx="5.13" ry="5.13"/><rect class="cls-6" x="14.15" y="42.47" width="33" height="49" rx="5.13" ry="5.13"/><rect class="cls-7" x="14.15" y="42.47" width="33" height="49" rx="5.13" ry="5.13"/><rect class="cls-10" x="14.15" y="42.47" width="33" height="49" rx="5.13" ry="5.13"/><rect class="cls-11" x="49.15" y="45.47" width="33" height="49" rx="5.13" ry="5.13"/><rect class="cls-12" x="87.15" y="45.47" width="33" height="49" rx="5.13" ry="5.13"/><rect class="cls-13" x="11.15" y="45.47" width="33" height="49" rx="5.13" ry="5.13"/><rect class="cls-14" x="46.15" y="48.47" width="33" height="49" rx="5.13" ry="5.13"/><rect class="cls-14" x="84.15" y="48.47" width="33" height="49" rx="5.13" ry="5.13"/><rect class="cls-14" x="8.15" y="48.47" width="33" height="49" rx="5.13" ry="5.13"/><path d="M334,371.53v3.8c0,6.19,1.69,9.49,5.34,9.49s5.21-3.4,5.21-10.59c0-7.69-1.34-10.67-6.83-16.06s-8.4-8.81-8.4-18.49c0-8.31,2-16.29,10.15-16.24,7.76.06,9.81,6.56,9.81,14.9v3h-5.51v-2.86c0-5.45-.84-9-4.41-9s-4.5,3.95-4.5,9.1c0,6.1,1,8.41,5.75,13,7.23,6.89,9.52,10.73,9.52,21.63,0,9.23-2.09,17.64-10.88,17.64-8.41,0-10.8-6.94-10.8-15.59v-3.77Z" transform="translate(-315.35 -279.03)"/><path d="M374.38,353.3v6.5c0,3.95.78,8.06,4.7,8.06,3.76,0,4.46-3.06,4.46-6.87v-.32H389V361c0,4.6-1.07,11.69-9.88,11.69-8.29,0-10.16-5.44-10.16-13.5v-14.8c0-6,2.1-12.66,10.25-12.66,7.66,0,9.9,5.68,9.9,12.67v8.95Zm9.34-4.53v-5c0-3.71-.59-7.35-4.57-7.35-3.75,0-4.74,3.1-4.74,7.39v4.92Z" transform="translate(-315.35 -279.03)"/><path d="M406.5,332.3h4.55v-9.75h5.5v9.75h5.6v4.92h-5.6v26.67c0,2,.36,4,2.87,4a11.82,11.82,0,0,0,2.49-.24V372a12.57,12.57,0,0,1-4.31.6c-3.85,0-6.55-1.59-6.55-7.65V337.22H406.5Z" transform="translate(-315.35 -279.03)"/></svg>