<svg id="Layer_1" data-name="Layer 1" xmlns="http://www.w3.org/2000/svg" viewBox="0 0 93 39.52"><defs><style>.cls-1{fill:none;stroke:#faa41a;stroke-miterlimit:10;stroke-width:4px;}</style></defs><title>score</title><path d="M421.52,346v1.86c0,3,1,4.63,3.29,4.63s3.2-1.66,3.2-5.17c0-3.76-.82-5.21-4.2-7.85s-5.17-4.3-5.17-9c0-4.06,1.22-8,6.25-7.93,4.77,0,6,3.2,6,7.28v1.48h-3.39v-1.39c0-2.66-.51-4.38-2.71-4.38s-2.77,1.92-2.77,4.44c0,3,.6,4.11,3.54,6.34,4.45,3.36,5.86,5.24,5.86,10.56,0,4.51-1.29,8.61-6.7,8.61-5.18,0-6.64-3.39-6.64-7.61V346Z" transform="translate(-412.87 -322.48)"/><path d="M446.75,347.28v.33c0,4.22-1.07,7.77-6.07,7.77-4.77,0-5.94-3.3-5.94-8.25v-9.49c0-4.14,1.51-7.47,6.15-7.47,5,0,5.86,3.67,5.86,6.93v1h-3.39v-.84c0-2.22-.37-4.13-2.54-4.13-1.89,0-2.64,1.42-2.64,4.31v10.48c0,2.22.42,4.53,2.59,4.53,1.93,0,2.59-1.3,2.59-4.39v-.77Z" transform="translate(-412.87 -322.48)"/><path d="M462.46,337.49v10.23c0,5.3-2.51,7.66-6.43,7.66s-6.31-2.32-6.31-7.53V337.41c0-4.7,2.48-7.24,6.45-7.24S462.46,332.85,462.46,337.49Zm-9.31-.1V348c0,2.66.9,4.37,3,4.37,1.89,0,2.92-1.3,2.92-4.41V337.37c0-2.4-.8-4.15-2.92-4.15S453.15,334.73,453.15,337.39Z" transform="translate(-412.87 -322.48)"/><path d="M466.26,338.88c0-3.94,0-6.15-.05-8.32h3.26c0,.64.12,2.18.12,3.82a5.26,5.26,0,0,1,5.15-4.15v4.21c-3,0-5.07,1.77-5.07,6.19V355h-3.41Z" transform="translate(-412.87 -322.48)"/><path d="M480,343.48v4c0,2.43.49,5,2.9,5s2.74-1.89,2.74-4.22V348H489v.18c0,2.83-.66,7.19-6.08,7.19-5.1,0-6.25-3.35-6.25-8.31V338c0-3.71,1.29-7.8,6.31-7.8,4.71,0,6.09,3.5,6.09,7.8v5.51Zm5.76-2.79v-3.05c0-2.28-.37-4.52-2.82-4.52S480,335,480,337.66v3Z" transform="translate(-412.87 -322.48)"/><path d="M493.2,338.3v-6.62h3.19v6.62Zm0,16.7v-6.62h3.19V355Z" transform="translate(-412.87 -322.48)"/><line class="cls-1" y1="37.52" x2="93" y2="37.52"/></svg>