<svg id="Layer_1" data-name="Layer 1" xmlns="http://www.w3.org/2000/svg" viewBox="0 0 93 40.49"><defs><style>.cls-1{fill:none;stroke:#faa41a;stroke-miterlimit:10;stroke-width:4px;}</style></defs><title>time</title><path d="M425.06,326.09h-5.19v-3.16h13.76v3.16h-5.15V355h-3.42Z" transform="translate(-410.29 -321.51)"/><path d="M435.7,330.56h3.41V355H435.7Zm0-9.05h3.41v5h-3.41Z" transform="translate(-410.29 -321.51)"/><path d="M443.64,337.6c0-4.44,0-5.86-.05-7h3.25a16.57,16.57,0,0,1,.14,2.29,4.26,4.26,0,0,1,4.18-2.68A3.53,3.53,0,0,1,455,333a4.68,4.68,0,0,1,4.5-2.83c2.4,0,4.6,1.08,4.6,5.79v19h-3.41V336.66c0-1.92-.37-3.36-2.28-3.36-2.29,0-2.8,2-2.8,4.68v17h-3.44V336.86c0-2.63-.67-3.56-2.33-3.56-2.23,0-2.75,2.09-2.75,4.87V355h-3.41Z" transform="translate(-410.29 -321.51)"/><path d="M471.21,343.48v4c0,2.43.49,5,2.9,5s2.74-1.89,2.74-4.22V348h3.35v.18c0,2.83-.66,7.19-6.08,7.19-5.1,0-6.25-3.35-6.25-8.31V338c0-3.71,1.29-7.8,6.31-7.8,4.71,0,6.09,3.5,6.09,7.8v5.51Zm5.76-2.79v-3.05c0-2.28-.37-4.52-2.82-4.52s-2.91,1.9-2.91,4.54v3Z" transform="translate(-410.29 -321.51)"/><path d="M484.4,338.3v-6.62h3.19v6.62Zm0,16.7v-6.62h3.19V355Z" transform="translate(-410.29 -321.51)"/><line class="cls-1" y1="38.49" x2="93" y2="38.49"/></svg>